<?xml version="1.0" encoding="utf-8"?>
<!-- Generator: Adobe Illustrator 25.2.1, SVG Export Plug-In . SVG Version: 6.00 Build 0)  -->
<svg version="1.1" id="Layer_1" xmlns="http://www.w3.org/2000/svg" xmlns:xlink="http://www.w3.org/1999/xlink" x="0px" y="0px"
	 viewBox="0 0 439.2 183.1" style="enable-background:new 0 0 439.2 183.1;" xml:space="preserve">
<style type="text/css">
	.st0{clip-path:url(#SVGID_2_);fill:url(#SVGID_3_);}
	.st1{clip-path:url(#SVGID_5_);fill:url(#SVGID_6_);}
	.st2{fill-rule:evenodd;clip-rule:evenodd;fill:#DD2729;}
	.st3{fill:#DD2729;}
	.st4{fill:#FFFFFF;}
</style>
<g id="Layer_1_1_">
</g>
<g id="Layer_2_1_">
	<g>
		<g>
			<g>
				<g>
					<defs>
						<path id="SVGID_1_" d="M45.2,49.6l-3.4-15.3c-0.3-1.5,0.2-3,1.4-4c3.8-2.8,7.9-5.3,12.1-7.4c1.4-0.7,2.9-0.4,4,0.7l9.2,9.1
							c-0.6,1-1.2,1.9-1.9,2.9c-5.8,8.8-12.4,17-17.8,26.1c-0.3,0.5-0.6,1.1-1,1.6c-7.1,9.3-11.3,21.2-11.3,34.1
							c0,30,23,54.3,51.3,54.3c28.4,0,51.3-24.3,51.3-54.3c0-12.2-3.8-23.4-10.2-32.4c-2.8-5.1-6-9.9-9.5-14.9l-12.3-17.4l9.1-9
							c1.1-1.1,2.6-1.3,4-0.7c4.2,2.1,8.3,4.6,12.1,7.4c1.2,0.9,1.8,2.4,1.4,4l-3.4,15.3c0.8,0.8,1.6,1.7,2.4,2.6l14.4-3.6
							c1.4-0.4,2.9,0.2,3.7,1.5c2.7,4,5,8.3,7,12.8c0.6,1.4,0.4,3-0.6,4.2l-10.1,11.5c0.3,1.2,0.6,2.3,0.9,3.5l14.2,4.6
							c1.4,0.5,2.4,1.7,2.5,3.3c0.2,2.5,0.3,4.9,0.3,7.4s-0.1,4.9-0.3,7.4c-0.1,1.6-1.1,2.8-2.5,3.3l-14.2,4.6
							c-0.3,1.2-0.6,2.4-0.9,3.5l10.1,11.5c1,1.2,1.3,2.8,0.6,4.2c-2,4.5-4.3,8.8-7,12.8c-0.9,1.3-2.3,1.9-3.7,1.5l-14.4-3.5
							c-0.8,0.9-1.6,1.7-2.4,2.6l3.4,15.3c0.3,1.5-0.2,3-1.4,4c-3.8,2.9-7.9,5.3-12.1,7.4c-1.4,0.7-2.9,0.4-4-0.7l-10.8-10.7
							c-1.1,0.3-2.2,0.7-3.3,0.9l-4.3,15c-0.4,1.5-1.6,2.5-3.1,2.7c-2.3,0.2-4.7,0.3-7,0.3s-4.7-0.1-7-0.3c-1.5-0.1-2.7-1.2-3.1-2.7
							l-4.3-15c-1.1-0.3-2.2-0.6-3.3-0.9l-10.8,10.7c-1.1,1.1-2.6,1.3-4,0.7c-4.2-2.1-8.3-4.6-12.1-7.4c-1.2-0.9-1.8-2.4-1.4-4
							l3.4-15.3c-0.8-0.8-1.6-1.7-2.4-2.6l-14.5,3.6c-1.5,0.4-2.9-0.2-3.7-1.5c-2.7-4-5-8.3-7-12.8c-0.6-1.4-0.4-3,0.6-4.2
							l10.1-11.5c-0.3-1.2-0.6-2.3-0.9-3.5l-14-4.9c-1.4-0.5-2.4-1.7-2.5-3.3c-0.2-2.5-0.3-4.9-0.3-7.4s0.1-4.9,0.3-7.4
							c0.1-1.6,1.1-2.8,2.5-3.3L27.5,82c0.3-1.2,0.6-2.4,0.9-3.5L18.2,67.1c-1-1.2-1.3-2.8-0.6-4.2c2-4.5,4.3-8.8,7-12.8
							c0.9-1.3,2.3-1.9,3.7-1.5l14.5,3.6C43.6,51.3,44.4,50.4,45.2,49.6"/>
					</defs>
					<clipPath id="SVGID_2_">
						<use xlink:href="#SVGID_1_"  style="overflow:visible;"/>
					</clipPath>
					
						<linearGradient id="SVGID_3_" gradientUnits="userSpaceOnUse" x1="87.95" y1="47.7714" x2="87.95" y2="148.4763" gradientTransform="matrix(1 0 0 -1 0 186)">
						<stop  offset="0" style="stop-color:#FF8702"/>
						<stop  offset="1" style="stop-color:#FFCB15"/>
					</linearGradient>
					<rect x="10.5" y="22.3" class="st0" width="154.9" height="157"/>
				</g>
			</g>
			<g>
				<g>
					<defs>
						<path id="SVGID_4_" d="M83.7,124.3l8.1,6.6l0.7-0.5c-0.4,0-0.9,0-1.3,0l0.6,0.5l8.1-6.6C99.9,124.3,83.7,124.3,83.7,124.3z
							 M81.1,116.2l8-6.5l-7.4-6L81.1,116.2z M101,119.4l-9.2-7.5l-9.2,7.5H101z M101.9,103.6l-7.4,6l8,6.5L101.9,103.6z M101,83
							l-6.5,5.3l7,5.7L101,83z M85.5,81l6.3,5.1l6.3-5.1H85.5z M89,88.3L82.6,83l-0.5,11L89,88.3z M84.3,101.4l7.5,6.1l7.5-6.1H84.3
							z M99,96.4l-7.3-5.9l-7.3,5.9H99z M90.2,28.8c0.1-0.1,0.3-0.2,0.4-0.3C90.5,28.6,90.3,28.7,90.2,28.8z M90.2,28.8L90.2,28.8
							L90.2,28.8z M90.2,28.8L90.2,28.8L90.2,28.8z M86,35.3c0.4-2.3,1.6-4.5,4.2-6.5c-0.1,0.1-0.3,0.2-0.4,0.3l0,0
							c-0.1,0.1-0.2,0.2-0.4,0.3l0,0l0,0c-0.1,0.1-0.2,0.2-0.3,0.3l0,0c-0.1,0.1-0.2,0.2-0.3,0.3l0,0c-0.1,0.1-0.2,0.2-0.3,0.3l0,0
							c-0.1,0.1-0.2,0.2-0.3,0.3l0,0c-0.1,0.1-0.2,0.2-0.2,0.3l0,0c-0.1,0.1-0.1,0.2-0.2,0.3v0.1c-0.1,0.1-0.1,0.2-0.2,0.3l-0.1,0.1
							c-0.1,0.1-0.1,0.2-0.2,0.3l-0.1,0.1c0,0.1-0.1,0.2-0.1,0.3L87,32.5c0,0.1-0.1,0.2-0.1,0.2L86.7,33c0,0.1-0.1,0.1-0.1,0.2
							c0,0.1-0.1,0.1-0.1,0.2c0,0.1,0,0.1-0.1,0.2c0,0.1-0.1,0.1-0.1,0.2v0.1c0,0.1-0.1,0.2-0.1,0.2l0,0v0.1c0,0.1-0.1,0.2-0.1,0.3
							l0,0c0,0.1,0,0.2-0.1,0.3l0,0v0.1C86,35.1,86,35.2,86,35.3z M88,49.2c0.2-2-0.9-4.9-1.5-7.2c-0.1-0.2-0.1-0.5-0.2-0.7v0.1l0,0
							v0.2v0.1l0.1,0.2l0,0V42l0,0v0.2l0.1,0.2l0,0v0.1v0.1v0.1v0.1l0.1,0.3l0,0l0.1,0.3v0.1v0.1C87.5,45.8,88.1,47.7,88,49.2
							 M88,49.2L88,49.2L88,49.2L88,49.2z M85.9,130.6l-0.8-0.6c-1.6-0.3-3.1-0.7-4.7-1.2v0.5l0.1-3.1L85.9,130.6z M103,128
							c-1.2,0.5-2.5,0.9-3.8,1.3l-0.9,0.8l4.6-3.8L103,128z M131.2,82.7c-3.5-11.5-9.2-20.3-15.6-29.5c3.9,10.6,10.3,31.8,9.4,43.2
							c-0.4,4.6-1.5,9.1-3.2,13.2c-3,6.7-7.9,12.4-14.1,16.1v0.5L105.3,76H80.5h-2.2l-2.4,50.9c-2.1-1.1-4.2-2.4-6.1-4
							c-8.4-6.8-13.3-17.2-13.5-28.2c0-7.9,1.8-16,5.3-23.2C70.8,52.6,89.3,36,88,3.8c-13,38.6-34.7,51-43.1,78.9
							c-9,29.2,10.5,63,43.2,63C120.6,145.6,140.2,111.9,131.2,82.7z"/>
					</defs>
					<use xlink:href="#SVGID_4_"  style="overflow:visible;fill:#FFFFFF;"/>
					<clipPath id="SVGID_5_">
						<use xlink:href="#SVGID_4_"  style="overflow:visible;"/>
					</clipPath>
					
						<linearGradient id="SVGID_6_" gradientUnits="userSpaceOnUse" x1="95.11" y1="64.5925" x2="77.5438" y2="181.5108" gradientTransform="matrix(1 0 0 -1 0 186)">
						<stop  offset="0" style="stop-color:#292157"/>
						<stop  offset="1" style="stop-color:#3FA5DD"/>
					</linearGradient>
					<rect x="35.9" y="3.8" class="st1" width="104.4" height="141.9"/>
					<use xlink:href="#SVGID_4_"  style="overflow:visible;fill:none;stroke:#FFFFFF;stroke-width:0.8504;stroke-miterlimit:10;"/>
				</g>
			</g>
			<path class="st2" d="M90,73.6c-5.1-3-3.8-10.6-0.3-13.7c-0.6,1.1-0.4,3.6,1.6,4.9c-1.8-2.4-0.7-8.6,3.2-9.9
				c-2.7,3.7,8.7,13,0.4,18.5c6.6-1,11.2-7.6,10.3-14.6c-0.9,2.1-1.9,3.4-4.1,3.9c5.2-3.2,5.1-12.1,0.7-16.2c1,3.7-0.2,7.8-2.1,10.3
				c2.8-6.8,0.7-12.8-6.4-19.3c-3-3.2-3.4-5.9-2.6-9c-9.4,6.9-1.8,16.3-2.7,21c-0.4,2.2-4.6,3.5-2.9-4.6c-4.5,6.3-7.7,10.6-2.9,18.3
				c-0.8-0.1-2.7-1.4-3.5-3.8C77.2,64,80.7,73.6,90,73.6"/>
		</g>
		<g>
			<g>
				<path class="st3" d="M205.9,94h-17.5c-5.4,0-7.9-1.2-7.9-7.6V62c0-6.4,2.5-7.6,7.9-7.6h17.5c5.4,0,7.9,1.2,7.9,7.6v24.3
					C213.8,92.8,211.3,94,205.9,94z M206.4,84.5V63.9c0-2.1-0.4-2.5-2.6-2.5h-13.4c-2.2,0-2.6,0.4-2.6,2.5v20.5
					c0,2.1,0.4,2.5,2.6,2.5h13.4C206,87,206.4,86.6,206.4,84.5z"/>
				<path class="st3" d="M236.5,92c0,1.4-0.6,1.9-1.9,1.9h-3.5c-1.4,0-1.9-0.6-1.9-1.9V61.4h-5.1c-1.4,0-1.9-0.6-1.9-1.9v-3.2
					c0-1.4,0.6-1.9,1.9-1.9h10.5c1.4,0,1.9,0.6,1.9,1.9V92z M236.5,47.1c0,1.4-0.6,1.9-1.9,1.9h-3.5c-1.4,0-1.9-0.6-1.9-1.9v-3.2
					c0-1.4,0.6-1.9,1.9-1.9h3.5c1.4,0,1.9,0.6,1.9,1.9V47.1z"/>
				<path class="st3" d="M264,92c0,1.4-0.6,1.9-1.9,1.9h-5.8c-5.4,0-7.9-1.2-7.9-7.6v-48c0-1.4,0.6-1.9,1.9-1.9h3.5
					c1.4,0,1.9,0.6,1.9,1.9v46.2c0,2.1,0.4,2.5,2.6,2.5h3.7c1.4,0,1.9,0.6,1.9,1.9L264,92L264,92z"/>
				<path class="st3" d="M282.5,92c0,1.4-0.6,1.9-1.9,1.9h-3.5c-1.4,0-1.9-0.6-1.9-1.9V61.4h-4.6c-1.4,0-1.9-0.6-1.9-1.9v-3.2
					c0-1.4,0.6-1.9,1.9-1.9h4.6V44c0-6.4,2.5-7.6,7.9-7.6h8.6c1.4,0,1.9,0.6,1.9,1.9v3.2c0,1.4-0.6,1.9-1.9,1.9h-6.6
					c-2.2,0-2.6,0.4-2.6,2.5v8.4h9.1c1.4,0,1.9,0.6,1.9,1.9v3.2c0,1.4-0.6,1.9-1.9,1.9h-9.1V92z"/>
				<path class="st3" d="M313.5,92c0,1.4-0.6,1.9-1.9,1.9h-3.5c-1.4,0-1.9-0.6-1.9-1.9V61.4h-5.1c-1.4,0-1.9-0.6-1.9-1.9v-3.2
					c0-1.4,0.6-1.9,1.9-1.9h10.5c1.4,0,1.9,0.6,1.9,1.9V92z M313.5,47.1c0,1.4-0.6,1.9-1.9,1.9h-3.5c-1.4,0-1.9-0.6-1.9-1.9v-3.2
					c0-1.4,0.6-1.9,1.9-1.9h3.5c1.4,0,1.9,0.6,1.9,1.9V47.1z"/>
				<path class="st3" d="M357,92c0,1.4-0.6,1.9-1.9,1.9h-21.9c-5.4,0-7.9-1.2-7.9-7.6V62c0-6.4,2.5-7.6,7.9-7.6h17.5
					c5.4,0,7.9,1.2,7.9,7.6v9c0,6.4-2.5,7.6-7.9,7.6h-18v5.8c0,2.4,0.6,2.5,3.8,2.5h18.6c1.4,0,1.9,0.6,1.9,1.9V92z M351.2,69.1
					v-5.2c0-2.1-0.4-2.5-2.6-2.5h-13.4c-2.2,0-2.6,0.4-2.6,2.5v7.7h16C350.8,71.7,351.2,71.2,351.2,69.1z"/>
				<path class="st3" d="M384.9,92c0,1.4-0.6,1.9-1.9,1.9h-5.8c-5.4,0-7.9-1.2-7.9-7.6v-48c0-1.4,0.6-1.9,1.9-1.9h3.5
					c1.4,0,1.9,0.6,1.9,1.9v46.2c0,2.1,0.4,2.5,2.6,2.5h3.7c1.4,0,1.9,0.6,1.9,1.9L384.9,92L384.9,92z"/>
				<path class="st3" d="M418.7,94h-17.5c-5.4,0-7.9-1.2-7.9-7.6V62c0-6.4,2.5-7.6,7.9-7.6h18.1V38.3c0-1.4,0.6-1.9,1.9-1.9h3.5
					c1.4,0,1.9,0.6,1.9,1.9v48C426.6,92.8,424.1,94,418.7,94z M419.3,84.5v-23h-16c-2.2,0-2.6,0.4-2.6,2.5v20.5
					c0,2.1,0.4,2.5,2.6,2.5h13.4C418.8,87,419.3,86.6,419.3,84.5z"/>
			</g>
			<g>
				<path class="st4" d="M183,136.3h12.2L183,119.4v-6.9c0.9-3,4-4.1,6.9-4.9h19.7l0.1,10.8h-13.2l13.2,16.1v6
					c-0.9,3.9-3.2,5.3-6.3,5.9H183V136.3z"/>
				<path class="st4" d="M214.6,107.7l10.8,0.1l0.5,23.4l-0.1,5.3c2.8-0.3,6.7-0.3,11.2-0.9l0.9-27.8l10.1-0.1l0.4,32.3
					c-2.3,3.8-5.9,5.5-10.1,6.7l-16.6,0.1c-4.8-1.6-8.3-6.9-8-10.4L214.6,107.7z"/>
				<path class="st4" d="M255,107.7l10-0.1c1.8-0.1,6.7-0.3,10.7,1.5c3.8,1.9,7.4,4.7,8.3,10.8c0.5,3.2-3.3,12.7-10.5,14.3
					c-2.1,0.4-5.2,0.8-8.1,0.6l-0.6,11.7l-11,0.2L255,107.7z M266.1,117c-1.4,2-1.2,5.5,1,7.5c3.8,1.4,5.4-1.2,6-2.8
					C273.3,118.6,270.6,116.9,266.1,117z"/>
				<path class="st4" d="M287.6,107.5l10.2,0.3c2.1,0,8.4-0.3,11.1,1.4c4,1.8,8.2,4.9,8.6,10.9c-0.4,5.5-2,9.5-5.8,12.6
					c-1.9,1.4-7.8,2.4-12.7,2.3l-0.3,11.6l-10.7,0.1L287.6,107.5z M299.8,116.5c-1.8,0-3,6.6-1.1,8.8c4.5,1.1,6.4-1.3,6.6-3.1
					C305.3,119.1,304.4,116.5,299.8,116.5z"/>
				<path class="st4" d="M332,146.2c-8-3.3-11.7-10.5-12.9-17.3c-0.3-10.8,7.1-18.3,14.2-21l11.4-0.3c9.6,3,12.7,11.3,13.7,18.9
					c0,8.2-3.5,16.7-12,19.9l-7.3,0.3L332,146.2z M332,122.5c-3.7,8,1.9,13.7,6,13.7c5.2,0,8.5-2.7,9.5-8.6
					C348,122.6,341.3,112.5,332,122.5z"/>
				<path class="st4" d="M362.8,107.6l22.6-0.1c3.3,1,5,1.9,8.3,5.9l0.3,8.5c-0.9,3.2-4.3,6.9-6.7,7.6l10.2,16.9l-12.4,0.2
					l-9.6-13.7l-0.6,13.8h-12.5L362.8,107.6z M374.9,117.5c-2.6,2.2-1.7,4.2-0.1,6.1c5.2,1.4,7.1-0.4,7.1-1.8
					C381.9,118.2,379.7,117.4,374.9,117.5z"/>
				<path class="st4" d="M406.4,118.5L396,118l0.6-10.3h32.2l-0.1,10.6h-10.2l-0.3,28.4l-12-0.1L406.4,118.5z"/>
			</g>
		</g>
	</g>
</g>
</svg>
